<svg width="699" height="319" viewBox="0 0 699 319" fill="none" xmlns="http://www.w3.org/2000/svg">
<path fill-rule="evenodd" clip-rule="evenodd" d="M357.361 285.675C433.064 309.368 510.904 348.887 590.596 276.705C670.289 204.523 720.39 141.291 688.036 59.4779C655.682 -22.3355 523.614 28.6228 485.242 -44.4988C446.869 -117.621 531.183 -183.984 494.833 -249.062C458.484 -314.14 430.534 -355.849 313.718 -314.471C196.902 -273.092 207.673 -167.807 118.84 -106.153C30.0071 -44.4988 -66.1041 47.7997 65.7937 212.494C197.691 377.188 281.659 261.981 357.361 285.675Z" stroke="#E4E4E4"/>
<path fill-rule="evenodd" clip-rule="evenodd" d="M347.895 247.751C409.478 266.991 472.8 299.081 537.629 240.468C602.457 181.854 643.214 130.509 616.895 64.0752C590.575 -2.35877 483.14 39.0204 451.924 -20.3557C420.708 -79.7319 489.296 -133.621 459.726 -186.465C430.157 -239.31 407.42 -273.178 312.392 -239.578C217.364 -205.978 226.125 -120.484 153.861 -70.4198C81.5969 -20.3558 3.41175 54.5924 110.709 188.327C218.006 322.062 286.312 228.511 347.895 247.751Z" stroke="#E4E4E4"/>
<path fill-rule="evenodd" clip-rule="evenodd" d="M330.188 222.583C380.15 238.281 431.522 264.465 484.117 216.64C536.711 168.815 569.777 126.92 548.424 72.7141C527.071 18.508 439.91 52.2709 414.586 3.82358C389.261 -44.6238 444.905 -88.5937 420.916 -131.712C396.926 -174.829 378.48 -202.464 301.385 -175.048C224.29 -147.633 231.398 -77.8749 172.771 -37.0257C114.144 3.82358 50.7132 64.9767 137.762 174.096C224.811 283.215 280.227 206.884 330.188 222.583Z" stroke="#E4E4E4"/>
<path fill-rule="evenodd" clip-rule="evenodd" d="M311.684 191.816C351.979 204.412 393.412 225.419 435.831 187.048C478.25 148.677 504.918 115.064 487.696 71.573C470.475 28.082 400.178 55.1708 379.753 16.3003C359.328 -22.5702 404.206 -57.8484 384.858 -92.443C365.51 -127.038 350.633 -149.21 288.454 -127.213C226.275 -105.217 232.008 -49.2485 184.724 -16.4741C137.44 16.3003 86.2818 65.365 156.488 152.914C226.695 240.464 271.389 179.221 311.684 191.816Z" stroke="#E4E4E4"/>
<path fill-rule="evenodd" clip-rule="evenodd" d="M306.917 171.954C339.827 182.249 373.666 199.421 408.31 168.057C442.953 136.692 464.734 109.217 450.668 73.6684C436.603 38.1192 379.191 60.2614 362.51 28.489C345.828 -3.28349 382.481 -32.1196 366.679 -60.3969C350.877 -88.6742 338.727 -106.797 287.945 -88.8178C237.163 -70.8382 241.845 -25.0901 203.227 1.69945C164.61 28.489 122.829 68.594 180.167 140.156C237.506 211.718 274.008 161.659 306.917 171.954Z" stroke="#E4E4E4"/>
<path fill-rule="evenodd" clip-rule="evenodd" d="M297.775 157.594C324.493 165.954 351.966 179.899 380.093 154.429C408.22 128.959 425.903 106.648 414.483 77.7803C403.064 48.9124 356.452 66.8931 342.909 41.0921C329.365 15.2911 359.123 -8.1255 346.294 -31.0883C333.465 -54.051 323.6 -68.7681 282.371 -54.1676C241.142 -39.5672 244.943 -2.4171 213.591 19.3375C182.238 41.0921 148.316 73.6597 194.868 131.772C241.421 189.884 271.056 149.234 297.775 157.594Z" stroke="#E4E4E4"/>
</svg>
